<?xml version="1.0" standalone="no"?>
<!DOCTYPE svg PUBLIC "-//W3C//DTD SVG 1.1//EN" "http://www.w3.org/Graphics/SVG/1.1/DTD/svg11.dtd">

<svg version="1.1" xmlns="http://www.w3.org/2000/svg" width="100%" height="100%" viewBox="460 15 1085 745">
	<g id="na_dk_greenland">
		<polygon points="492,46 507,76 495,83 494,97 491,107 509,121 521,118 535,97 555,93 574,81 609,76 600,68 617,71 606,59 628,50 639,30 659,25 634,20 612,16 587,18 545,23 515,22 489,33 466,37 468,44" />
	</g>
	<g id="eu_iceland">
		<polygon points="634,90 641,96 617,107 609,102 604,102 606,96 625,93" />
	</g>
	<g id="eu_britain">
		<polygon points="665,148 662,160 647,166 646,152 655,146" />
		<polygon points="667,138 675,131 682,138 678,142 690,156 697,159 690,167 665,172 675,166 668,163 676,155 673,148" />
	</g>
	<g id="eu_scandinavia">
		<polygon points="780,116 783,106 784,94 768,106 763,115 771,122 761,140 750,145 736,127 717,129 715,111 731,105 742,97 758,78 775,71 793,69 811,72 804,78 818,108 808,119" />
	</g>
	<g id="eu_north">
		<polygon points="766,150 755,154 740,153 736,144 734,136 727,142 727,155 715,156 701,169 713,179 725,180 722,187 737,192 763,193 785,195 791,179 797,171 793,157 782,145 775,151" />
	</g>
	<g id="eu_west">
		<polygon points="715,193 722,187 725,180 713,179 701,169 688,179 667,182 680,192 680,209 649,207 642,243 674,247 687,239 689,228 703,215 723,209 721,198" />
	</g>
	<g id="eu_east">
		<polygon points="819,218 820,207 800,208 785,195 791,179 797,171 793,157 782,145 782,135 794,134 792,126 808,119 818,108 804,78 811,72 852,84 844,92 821,88 839,103 864,91 862,81 886,81 916,165 900,174 904,187 914,195 906,204 919,221 920,236 909,232 900,224 890,224 880,220 860,202 864,189 849,195 851,203 839,202 841,197 833,193" />
	</g>
	<g id="eu_south">
		<polygon points="804,225 810,220 819,218 820,207 800,208 785,195 763,193 737,192 722,187 715,193 721,198 723,209 730,205 743,220 758,228 761,239 766,229 775,227 755,215 744,201 751,201 761,210 772,214 780,232 795,248 799,241 794,230" />
		<polygon points="758,240 745,241 758,249" />
		<polygon points="807,253 797,255 813,257" />
		<polygon points="727,236 724,226 729,223 733,233" />
	</g>
	<g id="af_egypt">
		<polygon points="767,278 744,267 732,282 732,305 745,319 766,323 803,342 809,330 851,330 862,324 845,289 857,292 851,278 808,275 787,267 784,278" />
	</g>
	<g id="af_north">
		<polygon points="804,363 803,342 766,323 745,319 732,305 732,282 744,267 737,261 736,246 700,246 675,258 658,253 640,266 636,284 618,297 599,328 601,351 595,365 613,402 638,426 662,424 700,416 710,427 726,427 729,445 739,445 749,439 764,437 755,421 759,411 798,391 794,378" />
	</g>
	<g id="af_east">
		<polygon points="821,423 798,391 794,378 804,363 803,342 809,330 851,330 862,324 878,353 900,383 914,395 942,386 925,435 898,458 883,477 883,495 890,512 860,515 852,504 841,497 833,478 829,462 835,450 842,437 834,426" />
	</g>
	<g id="af_central">
		<polygon points="829,501 841,497 833,478 829,462 835,450 842,437 834,426 821,423 798,391 759,411 755,421 764,437 749,439 739,445 729,445 727,462 743,487 765,485 775,497 783,490 793,493 796,513 814,516 830,527 837,522 827,512" />
	</g>
	<g id="af_south">
		<polygon points="849,531 852,504 841,497 829,501 827,512 837,522 830,527 814,516 796,513 793,493 783,490 775,497 765,485 743,487 752,517 742,541 748,564 760,606 775,631 774,644 805,644 846,609 846,595 863,582 858,567 870,551 890,532 890,512 860,515 858,525 865,539 859,544" />
	</g>
	<g id="af_madagascar">
		<polygon points="921,534 933,522 938,539 920,592 907,595 900,589 898,576 908,561 907,542" />
	</g>
	<g id="as_middleeast">
		<polygon points="810,220 819,218 824,223 833,223 847,218 867,225 880,220 890,224 900,224 909,232 920,236 935,250 943,244 956,238 978,246 982,254 981,272 986,288 996,301 989,313 964,301 949,302 926,282 923,291 943,317 960,310 984,328 953,357 946,366 906,381 898,358 880,325 857,292 851,278 858,249 836,248 818,248 809,231" />
	</g>
	<g id="as_ru_ural">
		<polygon points="965,67 986,58 999,84 1003,102 993,113 982,124 979,133 984,146 956,154 953,162 961,169 953,172 935,170 916,165 886,81 919,79 928,75 952,80 940,67 950,58 968,83 967,92 979,84" />
	</g>
	<g id="as_kazakhstan">
		<polygon points="984,146 1011,153 1038,166 1061,171 1080,179 1072,192 1056,201 1059,217 1034,228 1041,244 1023,238 1000,242 982,254 978,246 956,238 943,244 935,227 941,224 922,204 932,200 923,190 914,195 904,187 900,174 916,165 935,170 953,172 961,169 953,162 956,154" />
	</g>
	<g id="as_india">
		<polygon points="1023,238 1041,244 1069,257 1069,273 1085,281 1107,290 1125,295 1140,297 1153,288 1166,295 1156,304 1151,328 1138,327 1121,332 1120,339 1090,366 1087,395 1078,406 1070,403 1068,393 1049,349 1047,330 1033,334 1032,324 1012,310 989,313 996,301 986,288 981,272 982,254 1000,242" />
		<polygon points="1091,418 1094,401 1103,415" />
	</g>
	<g id="as_ru_yakutsk">
		<polygon points="1103,59 1125,60 1142,58 1143,76 1147,93 1144,118 1151,133 1163,145 1186,146 1202,154 1206,175 1193,175 1184,179 1159,172 1149,175 1128,162 1121,168 1125,175 1100,170 1080,179 1061,171 1038,166 1011,153 984,146 979,133 982,124 993,113 1003,102 999,84 986,58 1000,49 1032,47 1043,39 1059,44 1079,44 1088,50 1076,58" />
	</g>
	<g id="as_ru_siberia">
		<polygon points="1172,69 1142,58 1143,76 1147,93 1144,118 1151,133 1163,145 1186,146 1202,154 1206,175 1219,171 1214,158 1231,156 1230,125 1238,107 1233,86 1241,67 1201,59 1201,67" />
	</g>
	<g id="as_mongolia">
		<polygon points="1213,187 1206,175 1193,175 1184,179 1159,172 1149,175 1128,162 1121,168 1125,175 1100,170 1080,179 1095,187 1110,205 1120,202 1137,216 1175,221 1203,213 1202,203 1230,191" />
	</g>
	<g id="as_southeast">
		<polygon points="1155,346 1138,327 1151,328 1156,304 1166,295 1175,304 1170,315 1185,331 1209,321 1224,333 1216,343 1228,358 1240,376 1235,392 1217,403 1215,394 1193,378 1190,397 1200,411 1211,422 1215,443 1203,436 1193,415 1182,405 1183,383 1174,358 1161,364" />
	</g>
	<g id="as_ru_kamchatka">
		<polygon points="1264,179 1231,156 1230,125 1238,107 1233,86 1241,67 1275,70 1328,77 1330,72 1379,82 1404,89 1414,85 1427,99 1415,100 1394,95 1387,100 1410,108 1389,122 1379,118 1366,124 1368,132 1380,138 1385,166 1379,170 1348,139 1356,118 1350,110 1346,118 1328,113 1327,126 1316,128 1284,127 1271,148 1292,150 1309,170 1318,186 1312,212 1301,213 1291,204 1300,195 1292,183 1281,190" />
		<polygon points="1332,195 1310,155 1336,178 1333,182 1341,194" />
	</g>
	<g id="as_china">
		<polygon points="1246,329 1224,333 1209,321 1185,331 1170,315 1175,304 1166,295 1153,288 1140,297 1125,295 1107,290 1085,281 1069,273 1069,257 1041,244 1034,228 1059,217 1056,201 1072,192 1080,179 1095,187 1110,205 1120,202 1137,216 1175,221 1203,213 1202,203 1230,191 1213,187 1206,175 1219,171 1214,158 1231,156 1264,179 1281,190 1292,183 1300,195 1291,204 1301,213 1292,232 1308,244 1311,256 1301,262 1275,232 1258,225 1244,237 1273,245 1262,258 1282,278 1277,315 1267,325" />
		<polygon points="1282,320 1290,311 1292,328" />
	</g>
	<g id="as_japan">
		<polygon points="1342,222 1338,202 1361,210 1356,219 1345,215" />
		<polygon points="1348,241 1347,224 1356,228 1360,239 1363,250 1358,258 1347,258 1343,266 1338,260 1320,259 1328,252 1336,252" />
		<polygon points="1315,268 1320,265 1326,269 1325,278" />
		<polygon points="1333,270 1329,265 1334,263" />
	</g>
	<g id="oc_indonesia">
		<polygon points="1189,450 1169,423 1188,429 1209,449 1225,469 1222,482 1207,476" />
		<polygon points="1253,436 1250,443 1243,441 1247,468 1266,470 1273,474 1285,451 1292,446 1286,434 1292,424 1281,413 1272,422 1263,426 1260,436" />
		<polygon points="1247,499 1222,490 1229,485 1244,491 1255,488 1261,493 1272,499" />
		<polygon points="1304,371 1304,358 1292,349 1291,357 1287,365 1299,377 1314,380 1313,373" />
		<polygon points="1290,400 1290,390 1280,401" />
		<polygon points="1304,393 1302,385 1310,387" />
		<polygon points="1312,401 1306,399 1310,394" />
		<polygon points="1325,391 1317,385 1323,385" />
		<polygon points="1320,405 1323,396 1331,416 1321,421 1315,412 1306,409 1310,406" />
		<polygon points="1302,452 1309,450 1321,452 1324,443 1302,444 1293,453 1293,463 1289,470 1292,483 1300,482 1298,472 1310,479 1308,462 1315,459 1303,457" />
		<polygon points="1333,501 1323,497 1314,503 1315,509" />
		<polygon points="1301,504 1297,497 1308,500" />
		<polygon points="1284,504 1280,498 1288,498" />
	</g>
	<g id="oc_newguinea">
		<polygon points="1341,454 1343,438 1337,437 1334,454" />
		<polygon points="1342,474 1337,467 1349,471" />
		<polygon points="1362,467 1352,459 1366,454 1375,470 1389,459 1406,467 1433,481 1438,490 1441,501 1455,513 1434,508 1428,498 1420,495 1412,504 1401,502 1395,497 1385,496 1393,491 1388,483 1369,474 1361,474" />
		<polygon points="1452,489 1444,485 1459,477 1461,484" />
		<polygon points="1465,479 1451,465 1466,473" />
		<polygon points="1476,490 1471,493 1469,484" />
		<polygon points="1494,496 1487,497 1493,501" />
		<polygon points="1484,497 1479,498 1486,503" />
		<polygon points="1498,509 1498,501 1504,513" />
	</g>
	<g id="oc_newzealand">
		<polygon points="1486,697 1462,711 1449,705 1498,678 1502,688" />
		<polygon points="1506,680 1511,677 1509,669 1520,661 1520,645 1526,649 1526,657 1532,662 1538,665 1509,686" />
	</g>
	<g id="oc_au_east">
		<polygon points="1384,683 1370,696 1362,693 1366,678" />
		<polygon points="1342,646 1359,594 1352,592 1371,533 1391,549 1401,539 1402,525 1408,514 1413,527 1420,534 1423,545 1419,555 1429,563 1437,580 1447,593 1444,613 1432,631 1420,640 1409,652 1401,664 1392,663 1380,670 1374,665 1367,668 1354,660 1357,652 1349,649 1356,636" />
	</g>
	<g id="oc_au_west">
		<polygon points="1328,629 1342,646 1359,594 1352,592 1371,533 1377,521 1362,516 1345,522 1339,535 1328,528 1314,537 1301,547 1292,561 1252,573 1252,628 1240,641 1252,647 1270,640 1288,639" />
	</g>
</svg>