<?xml version="1.0" standalone="no"?>
<!DOCTYPE svg PUBLIC "-//W3C//DTD SVG 1.1//EN" "http://www.w3.org/Graphics/SVG/1.1/DTD/svg11.dtd">

<svg height="1694" width="1194" version="1.1" xmlns="http://www.w3.org/2000/svg">
	<style type="text/css">
		<![CDATA[
			#be_antwerp {
				stroke: #EF0000;
				fill: #EF0000;
			}

			#be_brussels {
				stroke: #E71010;
				fill: #E71010;
			}

			#be_eastflanders {
				stroke: #FF7070;
				fill: #FF7070;
			}

			#be_flemishbrabant {
				stroke: #FF0000;
				fill: #FF0000;
			}

			#be_hainaut {
				stroke: #CF3030;
				fill: #CF3030;
			}

			#be_liege {
				stroke: #FF6060;
				fill: #FF6060;
			}

			#be_limburg {
				stroke: #8F0000;
				fill: #8F0000;
			}

			#be_luxembourg {
				stroke: #9F0F0F;
				fill: #9F0F0F;
			}

			#be_namur {
				stroke: #FF2020;
				fill: #FF2020;
			}

			#be_westflanders {
				stroke: #FF0909;
				fill: #FF0909;
			}

			#be_walloonbrabant {
				stroke: #DD3232;
				fill: #DD3232;
			}

			#lu_luxembourg {
				stroke: #00A1DE;
				fill: #00A1DE;
			}

			#nl_drenthe {
				stroke: #FFAA00;
				fill: #FFAA00;
			}

			#nl_flevoland {
				stroke: #FFBC00;
				fill: #FFBC00;
			}

			#nl_friesland {
				stroke: #EECC00;
				fill: #EECC00;
			}

			#nl_gelderland {
				stroke: #EFAB00;
				fill: #EFAB00;
			}

			#nl_groningen {
				stroke: #FFBB00;
				fill: #FFBB00;
			}

			#nl_limburg {
				stroke: #FFD000;
				fill: #FFD000;
			}

			#nl_northbrabant {
				stroke: #DC8000;
				fill: #DC8000;
			}

			#nl_northholland {
				stroke: #F0C000;
				fill: #F0C000;
			}

			#nl_overijssel {
				stroke: #EEBB00;
				fill: #EEBB00;
			}

			#nl_southholland {
				stroke: #EA9200;
				fill: #EA9200;
			}

			#nl_utrecht {
				stroke: #EFA000;
				fill: #EFA000;
			}

			#nl_zeeland {
				stroke: #F07F00;
				fill: #F07F00;
			}

			g:hover {
				stroke: #BBBBBB !important;
				fill: #BBBBBB !important;
			}
		]]>
	</style>

	<g id="nl_groningen">
		<polygon points="1013,9 1029,10 1022,18" />
		<polygon points="992,9 982,14 993,20 1005,16" />
		<polygon points="927,70 940,81 925,83 943,98 950,115 943,129 940,151 928,175 945,196 968,202 980,171 999,153 1039,192 1057,187 1142,274 1136,286 1154,302 1168,275 1180,235 1172,186 1180,163 1178,142 1148,129 1147,108 1116,105 1100,90 1088,50 1059,45 983,62 956,76" />
	</g>
	<g id="nl_friesland">
		<polygon points="921,43 911,55 902,44 915,30 937,31 962,25 951,37 934,44" />
		<polygon points="780,53 786,46 811,49 831,43 874,43 872,51 827,57 816,56 799,64 782,61" />
		<polygon points="670,100 670,90 690,74 726,64 765,52 768,62 752,67 750,76 730,74 721,85 701,85 686,92 676,103" />
		<polygon points="707,142 698,138 705,132" />
		<polygon points="676,121 665,125 675,112" />
		<polygon points="626,127 653,113 655,122 646,129 636,130 634,139 623,147 616,155 604,150 611,139" />
		<polygon points="932,98 943,98 950,115 943,129 940,151 928,175 945,196 960,206 973,213 971,231 990,253 972,277 960,272 946,271 941,283 912,305 886,318 876,309 857,323 834,320 823,310 806,306 796,300 781,309 772,312 756,303 745,306 727,294 726,287 735,278 730,236 733,224 725,207 726,199 735,192 738,171 744,151 757,141 769,132 779,116 850,84 872,75 909,71 919,77 920,100" />
	</g>
	<g id="nl_drenthe">
		<polygon points="1149,345 1154,302 1136,286 1142,274 1057,187 1039,192 999,153 980,171 968,202 945,196 960,206 973,213 971,231 990,253 972,277 960,272 946,271 941,283 912,305 936,330 916,346 930,374 966,380 980,389 984,400 993,396 1000,402 1006,395 1014,402 1015,383 1036,377 1061,384 1080,383 1096,381 1115,387 1126,382 1142,388 1151,386" />
	</g>
	<g id="nl_overijssel">
		<polygon points="1060,392 1061,384 1036,377 1015,383 1014,402 1006,395 1000,402 993,396 984,400 980,389 966,380 930,374 916,346 936,330 912,305 886,318 876,309 857,323 834,320 837,333 850,336 880,366 871,375 886,383 884,393 845,406 853,439 872,458 892,451 917,473 911,482 921,492 905,509 909,524 922,529 933,553 970,559 977,551 989,549 1000,555 1002,563 1015,578 1041,575 1046,582 1057,574 1060,593 1084,600 1107,599 1113,588 1121,576 1133,572 1137,558 1157,551 1150,529 1155,509 1157,489 1144,476 1135,458 1121,472 1099,462 1085,464 1066,451 1065,435 1057,425 1067,425 1069,421 1078,420 1066,408 1066,393" />
	</g>
	<g id="nl_flevoland">
		<polygon points="879,386 871,375 880,366 850,336 837,333 834,320 823,310 806,306 800,311 792,328 780,340 780,381 793,389 798,402 832,402 870,392" />
		<polygon points="807,410 793,403 769,416 766,425 752,425 745,434 739,452 731,453 738,459 733,466 724,461 716,473 705,474 671,490 671,512 675,517 683,511 701,515 714,524 740,547 769,540 778,517 775,508 780,502 791,503 801,488 819,482 833,469 847,451 846,431 838,417 824,416" />
	</g>
	<g id="nl_northholland">
		<polygon points="587,175 601,165 607,182 614,184 608,196 609,210 601,219 598,231 590,233 577,248 567,248 561,239 561,225 571,205" />
		<polygon points="551,258 540,256 548,248 559,251" />
		<polygon points="565,260 585,259 585,275 594,282 604,286 607,297 616,299 616,291 612,287 621,279 628,269 645,269 665,304 663,331 670,347 680,348 689,341 707,348 707,368 695,375 692,386 669,400 660,392 640,395 637,404 656,443 652,452 651,462 647,469 655,475 637,496 627,499 633,507 651,516 664,513 679,527 693,524 716,536 703,540 693,563 693,573 687,579 673,576 678,570 675,563 662,563 652,560 654,532 642,537 631,539 620,539 619,548 605,548 600,555 591,559 582,559 571,566 570,559 556,557 543,564 527,561 530,544 540,526 532,520 528,525 510,518 521,492 527,465 540,394 545,373 540,356 555,312" />
	</g>
	<g id="nl_gelderland">
		<polygon points="1083,612 1084,600 1060,593 1057,574 1046,582 1041,575 1015,578 1002,563 1000,555 989,549 977,551 970,559 933,553 922,529 909,524 905,509 921,492 911,482 917,473 892,451 872,458 853,439 854,454 842,474 822,492 805,502 791,511 779,529 775,546 743,554 748,574 747,582 764,593 761,611 758,623 768,624 779,614 782,632 789,637 787,645 800,663 793,676 758,659 736,668 715,671 702,666 683,668 668,699 658,701 653,712 636,712 644,721 646,732 659,744 668,742 679,757 712,761 735,734 751,729 768,724 783,728 797,723 815,738 836,752 863,754 863,744 872,745 877,755 890,758 895,747 887,731 891,725 904,724 915,714 936,715 936,708 921,695 934,692 945,705 968,707 975,715 984,713 990,723 998,725 999,715 992,707 1005,712 1011,707 1017,715 1031,705 1035,696 1042,702 1066,683 1075,690 1087,686 1100,671 1099,665 1105,652 1098,647 1084,636 1067,628 1067,620 1077,620" />
	</g>
	<g id="nl_utrecht">
		<polygon points="588,571 591,559 600,555 605,548 619,548 620,539 631,539 642,537 654,532 652,560 662,563 675,563 678,570 673,576 687,579 693,573 693,563 703,540 716,536 743,554 748,574 747,582 764,593 761,611 758,623 768,624 779,614 782,632 789,637 787,645 800,663 793,676 758,659 736,668 715,671 702,666 683,668 666,657 654,667 640,667 616,675 598,657 608,649 595,644 597,637 607,635 609,626 599,626 597,609 589,602 591,595 607,597 614,585 597,574" />
	</g>
	<g id="nl_southholland">
		<polygon points="491,559 510,518 528,525 532,520 540,526 530,544 527,561 543,564 556,557 570,559 571,566 582,559 591,559 588,571 597,574 614,585 607,597 591,595 589,602 597,609 599,626 609,626 607,635 597,637 595,644 608,649 598,657 616,675 640,667 654,667 666,657 683,668 668,699 658,701 653,712 636,712 644,721 646,732 610,730 582,739 576,754 560,762 545,764 532,775 513,776 481,762 449,750 438,734 432,733 424,725 417,728 404,717 392,704 395,690 381,691 378,685 388,675 388,662 396,657 409,662 438,625 472,587" />
		<polygon points="438,750 385,714 357,722 345,733 353,740 368,735 384,738 396,767 420,775 444,786 450,795 469,792 480,786 473,776 451,766" />
	</g>
	<g id="nl_northbrabant">
		<polygon points="543,780 560,762 576,754 582,739 610,730 646,732 659,744 668,742 679,757 712,761 735,734 751,729 768,724 783,728 797,723 815,738 836,752 863,754 870,767 889,776 885,791 904,810 914,834 904,837 892,828 877,837 860,828 860,854 868,861 868,882 885,905 870,921 835,930 816,932 803,953 803,968 789,971 785,955 774,943 762,939 754,947 744,955 727,949 722,956 700,952 702,939 690,930 680,935 675,920 663,903 668,889 661,872 650,864 640,881 622,898 605,893 582,895 583,886 592,890 597,870 587,857 570,865 556,879 553,888 538,887 524,888 520,876 526,867 503,868 480,879 486,889 480,894 493,909 481,918 470,916 464,905 452,909 450,898 449,882 455,872 450,860 439,854 442,840 433,825 434,815 442,803 460,805 471,802 481,796 488,779 500,781 512,786 527,786" />
	</g>
	<g id="nl_zeeland">
		<polygon points="308,762 326,756 346,762 374,763 386,772 391,783 405,781 410,789 401,801 388,809 373,809 370,801 361,803 354,796 354,786 344,783 336,776 330,777 324,785 313,787 301,782 300,772" />
		<polygon points="423,846 439,854 442,840 433,825 434,815 442,803 422,794 410,800 427,812 418,817 407,813 381,817 389,826 390,834 398,834 400,845" />
		<polygon points="358,827 346,815 320,819 309,814 295,820 309,839 321,832 338,834 351,835" />
		<polygon points="445,907 452,909 450,898 449,882 428,881 417,883 401,870 398,856 380,847 366,842 354,843 343,842 327,839 312,846 304,845 287,820 276,817 265,821 246,833 239,835 240,845 260,867 274,877 289,879 303,869 302,878 313,892 326,893 337,903 344,898 357,901 362,882 372,874 384,877 396,886 403,898 416,903 428,897" />
		<polygon points="428,943 443,920 432,907 424,909 425,919 416,912 416,922 405,912 393,909 386,895 375,894 371,910 362,912 345,923 328,918 322,924 293,904 278,903 268,893 254,893 218,908 228,923 223,936 227,951 239,959 264,958 262,942 275,943 281,935 301,946 319,948 331,957 330,970 345,973 352,968 356,979 366,972 375,975 389,963 399,964" />
	</g>
	<g id="nl_limburg">
		<polygon points="806,985 789,971 803,968 803,953 816,932 835,930 870,921 885,905 868,882 868,861 860,854 860,828 877,837 892,828 904,837 914,834 904,810 885,791 889,776 870,767 863,754 863,744 872,745 877,755 890,758 912,769 904,775 913,782 910,791 926,792 931,804 923,814 955,849 957,894 961,912 951,924 940,931 921,966 916,974 925,992 947,982 944,992 947,1002 919,1014 912,1026 897,1030 892,1046 880,1035 870,1045 880,1061 875,1072 892,1067 908,1069 910,1079 905,1087 928,1097 922,1104 927,1114 922,1123 912,1123 910,1137 907,1143 898,1138 894,1144 914,1156 906,1163 898,1156 886,1153 872,1159 866,1151 854,1154 846,1154 845,1147 826,1152 819,1140 810,1128 811,1114 819,1097 829,1093 834,1074 824,1070 836,1048 831,1043 836,1033 840,1021 849,1021 844,1012 856,999 846,991 836,997 834,986 826,982" />
	</g>
	<g id="be_limburg">
		<polygon points="807,1136 819,1140 810,1128 811,1114 819,1097 829,1093 834,1074 824,1070 836,1048 831,1043 836,1033 840,1021 849,1021 844,1012 856,999 846,991 836,997 834,986 826,982 806,985 789,971 785,955 774,943 762,939 754,947 744,955 727,949 722,956 700,952 693,961 691,973 705,989 699,1007 672,1014 662,1026 642,1030 634,1046 648,1052 660,1050 659,1041 669,1041 680,1051 671,1061 658,1068 657,1078 648,1081 654,1092 673,1093 686,1096 684,1112 674,1110 670,1133 674,1143 667,1145 670,1156 666,1176 684,1181 684,1172 700,1169 714,1171 730,1161 748,1170 758,1164 770,1163 774,1154 802,1143" />
	</g>
	<g id="be_antwerp">
		<polygon points="443,920 440,909 445,907 452,909 464,905 470,916 481,918 493,909 480,894 486,889 480,879 503,868 526,867 520,876 524,888 538,887 553,888 556,879 570,865 587,857 597,870 592,890 583,886 582,895 605,893 622,898 640,881 650,864 661,872 668,889 663,903 675,920 680,935 690,930 702,939 700,952 693,961 691,973 705,989 699,1007 672,1014 662,1026 642,1030 634,1046 617,1046 591,1057 582,1046 563,1058 557,1051 540,1057 519,1062 508,1056 488,1061 453,1045 444,1047 434,1043 426,1021 437,1010 464,1009 467,989 457,962 464,950 462,942 453,940" />
	</g>
	<g id="be_eastflanders">
		<polygon points="225,969 227,951 239,959 264,958 262,942 275,943 281,935 301,946 319,948 331,957 330,970 345,973 352,968 356,979 366,972 375,975 389,963 399,964 428,943 443,920 453,940 462,942 464,950 457,962 467,989 464,1009 437,1010 426,1021 434,1043 444,1047 443,1061 431,1070 422,1064 416,1073 426,1089 417,1094 406,1088 393,1128 401,1137 393,1151 372,1152 364,1157 372,1167 354,1168 350,1161 327,1160 319,1149 304,1149 290,1171 268,1166 262,1154 244,1155 260,1139 243,1113 248,1099 233,1099 235,1069 242,1061 237,1044 212,1019 228,1005 233,995 222,982" />
	</g>
	<g id="be_westflanders">
		<polygon points="149,933 218,908 228,923 223,936 227,951 225,969 222,982 233,995 228,1005 212,1019 237,1044 242,1061 235,1069 233,1099 248,1099 243,1113 260,1139 244,1155 217,1175 205,1158 191,1159 184,1152 170,1158 158,1143 134,1150 115,1159 103,1181 86,1172 78,1174 57,1134 33,1129 25,1112 32,1079 28,1062 19,1053 13,1019 57,993 110,960" />
	</g>
	<g id="be_hainaut">
		<polygon points="357,1180 367,1185 407,1177 405,1202 416,1210 426,1197 434,1212 448,1217 465,1235 468,1247 479,1238 504,1242 511,1253 529,1248 524,1264 537,1274 531,1289 541,1293 536,1333 518,1337 511,1332 503,1332 499,1342 485,1339 458,1358 472,1372 479,1365 486,1388 475,1396 489,1414 479,1424 496,1487 470,1483 464,1476 433,1482 431,1476 419,1473 425,1466 418,1460 422,1446 439,1437 433,1413 416,1410 420,1378 438,1363 425,1350 419,1353 423,1361 417,1361 388,1322 356,1332 342,1322 318,1321 314,1339 308,1344 299,1334 292,1315 295,1294 280,1265 253,1265 257,1253 244,1251 238,1261 224,1265 198,1249 194,1221 181,1194 192,1191 189,1176 179,1176 170,1158 184,1152 191,1159 205,1158 217,1175 244,1155 262,1154 268,1166 290,1171 304,1149 319,1149 327,1160 350,1161 354,1168" />
	</g>
	<g id="be_walloonbrabant">
		<polygon points="530,1239 529,1248 511,1253 504,1242 479,1238 468,1247 465,1235 448,1217 434,1212 426,1197 416,1210 405,1202 407,1177 421,1171 444,1186 460,1184 468,1171 478,1178 484,1169 510,1161 515,1172 534,1159 538,1166 549,1162 546,1145 565,1146 575,1139 598,1155 613,1153 620,1166 635,1154 645,1162 637,1174 643,1182 639,1197 633,1208 627,1202 621,1212 575,1226 573,1218 553,1221 556,1237 538,1235" />
	</g>
	<g id="be_flemishbrabant">
		<path d="M 484,1169 478,1178 468,1171 460,1184 444,1186 421,1171 407,1177 367,1185 357,1180 354,1168 372,1167 364,1157 372,1152 393,1151 401,1137 393,1128 406,1088 417,1094 426,1089 416,1073 422,1064 431,1070 443,1061 444,1047 453,1045 488,1061 508,1056 519,1062 540,1057 557,1051 563,1058 582,1046 591,1057 617,1046 634,1046 648,1052 660,1050 659,1041 669,1041 680,1051 671,1061 658,1068 657,1078 648,1081 654,1092 673,1093 686,1096 684,1112 674,1110 670,1133 674,1143 667,1145 670,1156 666,1176 654,1175 645,1162 635,1154 620,1166 613,1153 598,1155 575,1139 565,1146 546,1145 549,1162 538,1166 534,1159 515,1172 510,1161 Z
			 M 459,1108 469,1114 464,1102 480,1101 486,1093 495,1106 491,1117 505,1122 505,1133 495,1135 505,1144 472,1159 459,1140 445,1134 448,1127 457,1125 457,1120 450,1115 Z" />
	</g>
	<g id="be_brussels">
		<polygon points="459,1108 469,1114 464,1102 480,1101 486,1093 495,1106 491,1117 505,1122 505,1133 495,1135 505,1144 472,1159 459,1140 445,1134 448,1127 457,1125 457,1120 450,1115" />
	</g>
	<g id="be_liege">
		<polygon points="654,1243 633,1208 639,1197 643,1182 637,1174 645,1162 654,1175 666,1176 684,1181 684,1172 700,1169 714,1171 730,1161 748,1170 758,1164 770,1163 774,1154 802,1143 807,1136 819,1140 826,1152 845,1147 846,1154 854,1154 866,1151 872,1159 886,1153 898,1156 906,1163 926,1169 943,1204 965,1206 942,1237 956,1257 988,1259 986,1271 997,1277 989,1305 1004,1325 993,1337 976,1327 972,1351 944,1367 951,1386 939,1394 926,1394 922,1401 911,1397 909,1389 904,1375 905,1332 864,1321 865,1332 860,1343 868,1351 827,1354 832,1337 826,1337 822,1330 829,1317 812,1315 791,1301 780,1306 771,1293 759,1297 745,1287 749,1301 739,1306 728,1306 715,1313 710,1302 698,1295 691,1272 684,1276 676,1258 665,1258 663,1249 645,1253" />
	</g>
	<g id="be_namur">
		<polygon points="747,1317 739,1306 728,1306 715,1313 710,1302 698,1295 691,1272 684,1276 676,1258 665,1258 663,1249 645,1253 654,1243 633,1208 627,1202 621,1212 575,1226 573,1218 553,1221 556,1237 538,1235 530,1239 529,1248 524,1264 537,1274 531,1289 541,1293 536,1333 518,1337 511,1332 503,1332 499,1342 485,1339 458,1358 472,1372 479,1365 486,1388 475,1396 489,1414 479,1424 496,1487 560,1467 559,1435 577,1414 594,1398 612,1408 607,1428 598,1424 597,1449 587,1470 587,1480 610,1495 601,1519 608,1534 603,1547 627,1551 638,1536 639,1525 659,1512 672,1496 670,1482 656,1471 642,1472 637,1453 653,1442 656,1419 711,1420 705,1410 716,1402 698,1376 742,1345 741,1337 729,1335 742,1327 739,1321" />
	</g>
	<g id="be_luxembourg">
		<polygon points="640,1547 627,1551 638,1536 639,1525 659,1512 672,1496 670,1482 656,1471 642,1472 637,1453 653,1442 656,1419 711,1420 705,1410 716,1402 698,1376 742,1345 741,1337 729,1335 742,1327 739,1321 747,1317 739,1306 749,1301 745,1287 759,1297 771,1293 780,1306 791,1301 812,1315 829,1317 822,1330 826,1337 832,1337 827,1354 868,1351 860,1343 865,1332 864,1321 905,1332 904,1375 909,1389 893,1396 894,1414 875,1415 872,1434 861,1438 866,1451 854,1456 862,1470 843,1478 833,1501 848,1511 838,1516 841,1544 852,1542 862,1569 874,1577 874,1588 886,1594 887,1604 875,1603 871,1621 878,1628 863,1640 844,1637 841,1645 813,1643 804,1658 788,1652 765,1662 759,1644 753,1624 734,1613 725,1622 721,1613 728,1601 712,1587 686,1587 676,1579 666,1559 644,1553" />
	</g>
	<g id="lu_luxembourg">
		<polygon points="882,1658 863,1640 878,1628 871,1621 875,1603 887,1604 886,1594 874,1588 874,1577 862,1569 852,1542 841,1544 838,1516 848,1511 833,1501 843,1478 862,1470 854,1456 866,1451 861,1438 872,1434 875,1415 894,1414 893,1396 909,1389 911,1397 922,1401 926,1394 939,1394 938,1433 954,1474 974,1501 999,1518 1014,1520 1021,1532 1043,1535 1060,1539 1058,1569 1037,1592 1022,1618 1022,1669 1003,1665 982,1653 963,1656 947,1675 912,1675 907,1664 891,1656" />
	</g>
</svg>