<?xml version="1.0" standalone="no"?>
<!DOCTYPE svg PUBLIC "-//W3C//DTD SVG 1.1//EN" "http://www.w3.org/Graphics/SVG/1.1/DTD/svg11.dtd">

<svg height="100%" width="100%" version="1.1" xmlns="http://www.w3.org/2000/svg" viewBox="-470 150 2100 1780">
	<!--g id="na_belize">
		<polygon points="1103,1843 1085,1859 1084,1816 1104,1789 1107,1819" />
	</g-->
	<g id="na_ca_alberta">
		<polygon points="701,1015 639,1001 630,984 634,963 616,934 598,899 582,856 635,709 756,741" />
	</g>
	<g id="na_ca_britishcolombia">
		<polygon points="405,795 412,774 426,786 414,802 410,831" />
		<polygon points="469,955 485,969 485,945 475,935 470,912 438,882 436,903 456,924 460,944" />
		<polygon points="446,783 459,772 471,751 455,723 457,709 457,631 424,635 422,602 588,691 635,709 582,856 598,899 616,934 634,963 630,984 639,1001 606,994 590,990 497,955 501,939 494,943 494,930 485,931 481,922 488,914 466,901 469,891 450,880 459,867 451,866 459,848 448,829 456,815" />
	</g>
	<g id="na_ca_manitoba">
		<polygon points="907,1038 841,1034 857,757 947,759 951,791 968,791 979,834 998,825 1026,839 943,940 942,1037" />
	</g>
	<g id="na_ca_newbrunswick">
		<polygon points="1397,1013 1373,1011 1382,1001 1382,988 1393,989 1405,978 1422,982 1436,975 1437,994 1467,1009 1458,1023 1427,1052 1407,1043" />
	</g>
	<g id="na_ca_newfoundland">
		<polygon points="1310,680 1327,703 1340,726 1356,746 1364,768 1383,785 1383,807 1357,812 1339,806 1333,838 1357,867 1365,856 1370,876 1400,880 1410,865 1501,824 1506,836 1521,812 1504,780 1489,780 1483,794 1472,775 1447,817 1435,807 1464,765 1387,753 1388,734" />
		<polygon points="1533,875 1529,822 1517,840 1521,940 1579,911 1583,930 1596,897 1622,917 1621,878 1601,886 1604,869 1590,882 1586,857 1561,874 1543,861" />
	</g>
	<g id="na_ca_northwestterritories">
		<polygon points="845,279 864,275 869,283 860,289" />
		<polygon points="843,309 839,289 860,297 856,308" />
		<polygon points="771,317 808,297 822,297 826,306 819,308 817,319 806,324 806,313 788,330" />
		<polygon points="747,415 759,407 796,395 783,371 771,371 765,356 741,352 740,366 722,383 704,403 712,416 715,432 727,428 738,430" />
		<polygon points="836,343 846,356 842,371 819,381 808,368 828,366 831,360 820,356 809,358 797,347 822,327" />
		<polygon points="815,425 829,421 812,492 750,477 779,477 795,478 783,468 770,468 755,459 750,446 775,446 754,437 758,422 772,412 799,406 794,421 808,415" />
		<polygon points="611,419 583,426 557,469 576,480 564,504 573,514 554,535 563,552 561,585 555,615 568,638 562,657 591,664 588,691 635,709 756,741 857,757 865,650 791,623 779,604 760,597 703,515 718,479 701,463 691,473 682,468 688,450 673,462 672,436 653,442 614,439 654,429 610,429" />
	</g>
	<g id="na_ca_novascotia">
		<polygon points="1488,1014 1467,1009 1458,1023 1481,1024 1465,1035 1445,1060 1464,1083 1480,1050 1519,1009 1514,1004 1532,985 1524,978 1517,984 1508,962 1507,1000 1499,1002" />
	</g>
	<g id="na_ca_nunavut">
		<polygon points="864,374 842,371 846,356 850,335 862,324 863,352 872,347 875,359" />
		<polygon points="909,300 894,294 891,270 918,285 920,307" />
		<polygon points="921,378 927,363 925,340 903,338 898,354 887,334 891,365 907,362 904,376" />
		<polygon points="965,240 949,220 938,249 946,273 964,272 952,284 959,300 975,302 984,279 992,271 979,259" />
		<polygon points="934,310 930,281 944,295 943,305" />
		<polygon points="977,236 957,210 992,173 1035,159 1062,167 1045,193 1061,190 1052,243 1032,256 1046,267 1048,291 1038,298 1041,309 1030,316 1046,324 1036,342 1021,334 1006,345 980,341 980,330 991,324 982,311 991,308 1005,316 999,300 984,297 991,286 1010,286 1013,278 985,251 990,243 1011,259 1002,241 1019,225 1010,219 996,235" />
		<polygon points="973,357 1001,368 1021,353 1043,359 1044,380 1024,380 1010,389 987,390 964,385 963,365 953,349 939,345 931,331 950,332 963,339 978,349" />
		<polygon points="953,372 942,366 935,382 954,387" />
		<polygon points="755,495 750,477 812,492 829,421 837,454 846,416 862,431 862,475 891,501 889,512 873,512 884,527 867,531 839,514 818,521 776,523 771,502" />
		<polygon points="872,408 865,424 856,408" />
		<polygon points="904,436 906,407 925,412 929,442 929,461 916,474 902,453 885,441 888,429" />
		<polygon points="1111,647 1043,608 1040,650 1030,664 1047,661 1056,671 1075,645 1100,655" />
		<polygon points="1117,502 1085,482 1082,498 1025,499 1006,496 990,480 1008,477 987,469 986,426 997,410 1014,405 1007,436 1012,457 1022,443 1019,423 1035,404 1049,421 1055,448 1064,434 1082,424 1134,440 1184,463 1181,474 1193,495 1232,503 1253,516 1272,513 1272,562 1251,556 1225,542 1224,563 1244,577 1264,578 1284,620 1231,614 1278,638 1280,649 1232,641 1198,632 1208,627 1175,610 1161,611 1145,627 1129,624 1125,615 1128,602 1169,589 1155,575 1167,543 1129,508 1113,517 1110,507" />
		<polygon points="1087,416 1060,423 1049,402 1072,402" />
		<polygon points="1119,527 1130,528 1137,546 1122,556 1113,539" />
		<polygon points="737,500 718,479 703,515 760,597 779,604 791,623 865,650 857,757 947,759 954,725 973,699 996,683 988,670 1003,654 1018,656 1031,625 1008,625 998,609 1026,618 1037,597 1026,591 1040,586 1055,594 1081,563 1064,540 1074,526 1055,508 1032,507 1036,528 1021,572 1009,553 999,523 988,549 978,522 966,512 974,503 954,466 953,438 964,438 977,409 946,402 938,426 941,461 933,492 931,508 951,521 954,543 942,574 931,572 927,547 939,538 919,509 901,529 917,543 906,562 872,560 862,548 853,547 841,528 815,534 832,543 819,550 819,573 810,574 806,552 798,543 771,545 750,533 763,527 759,507" />
		<polygon points="1126,684 1116,686 1127,703" />
		<polygon points="1093,680 1087,670 1076,680 1077,694" />
	</g>
	<g id="na_ca_ontario">
		<polygon points="1049,855 1026,839 943,940 942,1037 981,1048 1031,1058 1056,1035 1085,1038 1096,1054 1113,1052 1130,1086 1189,1094 1211,1115 1200,1124 1179,1111 1178,1160 1173,1183 1163,1190 1161,1199 1174,1196 1205,1174 1233,1163 1230,1155 1215,1154 1228,1140 1259,1129 1281,1110 1296,1095 1295,1079 1263,1090 1238,1075 1204,1071 1182,951 1165,957 1148,938 1135,921 1129,896 1124,867 1084,871" />
		<polygon points="1169,1098 1147,1102 1170,1107" />
	</g>
	<g id="na_ca_princeedwardisland">
		<polygon points="1470,994 1492,987 1487,1003 1457,999 1456,987" />
	</g>
	<g id="na_ca_quebec">
		<polygon points="1347,1081 1318,1088 1296,1095 1295,1079 1263,1090 1238,1075 1204,1071 1182,951 1195,932 1163,874 1193,844 1196,822 1174,776 1150,763 1169,747 1141,683 1144,667 1175,671 1190,661 1227,684 1248,681 1266,732 1280,726 1292,741 1308,726 1310,680 1327,703 1340,726 1356,746 1364,768 1383,785 1383,807 1357,812 1339,806 1333,838 1357,867 1365,856 1370,876 1400,880 1410,865 1501,824 1506,836 1492,850 1485,879 1462,898 1390,925 1382,949 1370,956 1353,993 1343,1028 1369,982 1407,945 1432,943 1436,956 1426,969 1413,970 1405,978 1393,989 1382,988 1382,1001 1373,1011 1364,1012 1363,1060 1354,1070" />
		<polygon points="1466,918 1423,922 1446,929" />
	</g>
	<g id="na_ca_saskatchewan">
		<polygon points="798,1029 701,1015 756,741 857,757 841,1034" />
	</g>
	<g id="na_ca_yukon">
		<polygon points="563,386 409,581 427,594 422,602 588,691 591,664 562,657 568,638 555,615 561,585 563,552 554,535 573,514 564,504 576,480 557,469 583,426 576,419 574,399" />
	</g>
	<g id="na_cuba">
		<polygon points="1287,1664 1232,1664 1188,1687 1187,1698 1176,1705 1189,1708 1225,1682 1248,1680 1241,1689 1279,1691 1321,1694 1337,1711 1365,1715 1347,1731 1411,1720 1431,1706 1396,1699 1357,1686 1323,1674 1302,1675" />
		<polygon points="1215,1711 1226,1699 1230,1709" />
	</g>
	<!--g id="na_dominicanrepublic">
		<polygon points="1507,1759 1499,1749 1498,1725 1489,1706 1514,1696 1547,1705 1567,1707 1578,1715 1570,1726 1543,1728 1520,1735" />
	</g>
	<g id="na_guatemala">
		<polygon points="1034,1913 1066,1916 1086,1889 1107,1864 1085,1859 1084,1816 1071,1813 1042,1815 1043,1825 1030,1831 1054,1852 1031,1861 1012,1897" />
	</g>
	<g id="na_haiti">
		<polygon points="1498,1725 1489,1706 1450,1712 1467,1720 1479,1737 1431,1747 1448,1762 1499,1749" />
	</g>
	<g id="na_jamaica">
		<polygon points="1374,1763 1393,1776 1375,1777 1368,1785 1341,1771 1352,1765" />
	</g-->
	<g id="na_mx_aguascalientes">
		<polygon points="764,1709 784,1701 775,1691 764,1697" />
	</g>
	<g id="na_mx_bajacalifornia">
		<polygon points="487,1396 496,1428 502,1474 528,1503 531,1523 561,1531 552,1500 535,1479 531,1450 537,1437 533,1422 534,1405" />
	</g>
	<g id="na_mx_bajacaliforniasur">
		<polygon points="531,1523 508,1524 539,1557 560,1575 559,1611 596,1652 602,1666 615,1655 594,1620 585,1584 573,1555 561,1531" />
	</g>
	<g id="na_mx_campeche">
		<polygon points="1071,1813 1042,1815 994,1798 1027,1783 1050,1753 1074,1776" />
	</g>
	<g id="na_mx_chiapas">
		<polygon points="956,1861 980,1872 1012,1897 1031,1861 1054,1852 1030,1831 1006,1816 986,1828 975,1815 961,1828" />
	</g>
	<g id="na_mx_chihuahua">
		<polygon points="649,1564 649,1536 659,1533 657,1512 663,1483 665,1461 667,1449 701,1450 732,1486 740,1511 764,1530 749,1554 752,1584 723,1589 703,1579 679,1603 664,1587" />
	</g>
	<g id="na_mx_coahuila">
		<polygon points="779,1513 805,1515 836,1564 819,1579 820,1591 806,1599 827,1626 815,1629 813,1643 773,1629 757,1621 761,1596 752,1584 749,1554 764,1530" />
	</g>
	<g id="na_mx_colima">
		<polygon points="710,1765 733,1759 743,1771 728,1780" />
	</g>
	<g id="na_mx_durango">
		<polygon points="678,1621 679,1603 703,1579 723,1589 752,1584 761,1596 757,1621 773,1629 770,1644 749,1648 738,1669 728,1687 708,1671 701,1659 689,1638" />
	</g>
	<g id="na_mx_guanajuato">
		<polygon points="777,1741 798,1750 816,1747 812,1734 830,1717 809,1713 794,1704" />
	</g>
	<g id="na_mx_guerrero">
		<polygon points="766,1809 781,1786 800,1789 808,1780 814,1792 831,1785 842,1795 856,1807 860,1831 851,1850 796,1825" />
	</g>
	<g id="na_mx_hidalgo">
		<polygon points="843,1754 825,1747 845,1725 858,1720 865,1728 867,1741 862,1761 854,1765" />
	</g>
	<g id="na_mx_jalisco">
		<polygon points="794,1704 784,1701 764,1709 753,1722 742,1713 753,1700 728,1687 735,1713 726,1726 715,1719 700,1725 697,1746 710,1765 733,1759 743,1771 765,1762 753,1747 777,1741" />
	</g>
	<g id="na_mx_mexico">
		<polygon points="808,1780 825,1747 843,1754 854,1765 852,1780 846,1777 840,1762 836,1777 831,1785 814,1792" />
	</g>
	<g id="na_mx_mexicocity">
		<polygon points="840,1762 836,1777 846,1777" />
	</g>
	<g id="na_mx_michoacan">
		<polygon points="766,1809 781,1786 800,1789 808,1780 825,1747 816,1747 798,1750 777,1741 753,1747 765,1762 743,1771 728,1780" />
	</g>
	<g id="na_mx_morelos">
		<polygon points="836,1777 831,1785 842,1795 852,1780 846,1777" />
	</g>
	<g id="na_mx_nayarit">
		<polygon points="735,1713 728,1687 708,1671 697,1689 707,1710 700,1725 715,1719 726,1726" />
	</g>
	<g id="na_mx_nuevoleon">
		<polygon points="836,1564 852,1600 864,1611 865,1624 839,1643 838,1661 818,1674 813,1643 815,1629 827,1626 806,1599 820,1591 819,1579" />
	</g>
	<g id="na_mx_oaxaca">
		<polygon points="898,1791 875,1802 856,1807 860,1831 851,1850 916,1873 956,1861 961,1828 938,1829 916,1813" />
	</g>
	<g id="na_mx_puebla">
		<polygon points="862,1761 867,1741 886,1753 886,1767 885,1786 898,1791 875,1802 856,1807 842,1795 852,1780 854,1765 864,1776 875,1772" />
	</g>
	<g id="na_mx_queretaro">
		<polygon points="825,1747 816,1747 812,1734 830,1717 845,1714 845,1725" />
	</g>
	<g id="na_mx_quintanaroo">
		<polygon points="1071,1813 1084,1816 1104,1789 1113,1807 1121,1757 1135,1736 1128,1717 1115,1717 1105,1750 1074,1776" />
	</g>
	<g id="na_mx_sanluispotosi">
		<polygon points="809,1713 794,1704 797,1687 785,1688 776,1668 801,1657 813,1643 818,1674 833,1689 862,1699 858,1720 845,1725 845,1714 830,1717" />
	</g>
	<g id="na_mx_sinaloa">
		<polygon points="679,1603 664,1587 649,1564 630,1584 624,1596 653,1623 677,1660 697,1689 708,1671 701,1659 689,1638 678,1621" />
	</g>
	<g id="na_mx_sonora">
		<polygon points="537,1437 563,1451 569,1482 579,1515 603,1542 618,1569 630,1584 649,1564 649,1536 659,1533 657,1512 663,1483 665,1461 648,1457 608,1453 534,1405 533,1422" />
	</g>
	<g id="na_mx_tabasco">
		<polygon points="1030,1831 1006,1816 986,1828 975,1815 961,1828 955,1807 994,1798 1042,1815 1043,1825" />
	</g>
	<g id="na_mx_tamaulipas">
		<polygon points="833,1689 818,1674 838,1661 839,1643 865,1624 864,1611 852,1600 896,1619 882,1644 882,1669 878,1704 862,1699" />
	</g>
	<g id="na_mx_tlaxcala">
		<polygon points="862,1761 854,1765 864,1776 875,1772" />
	</g>
	<g id="na_mx_veracruz">
		<polygon points="862,1699 878,1704 893,1726 909,1759 934,1795 955,1807 961,1828 938,1829 916,1813 898,1791 885,1786 886,1767 886,1753 867,1741 865,1728 858,1720" />
	</g>
	<g id="na_mx_yucatan">
		<polygon points="1050,1753 1079,1727 1115,1717 1105,1750 1074,1776" />
	</g>
	<g id="na_mx_zacatecas">
		<polygon points="813,1643 801,1657 776,1668 785,1688 797,1687 794,1704 784,1701 775,1691 764,1697 764,1709 753,1722 742,1713 753,1700 728,1687 738,1669 749,1648 770,1644 773,1629" />
	</g>
	<g id="na_usa_alabama">
		<polygon points="1092,1485 1084,1499 1084,1382 1133,1380 1156,1444 1154,1478 1102,1481 1105,1498 1095,1502" />
	</g>
	<g id="na_usa_alaska">
		<polygon points="51,447 46,439 31,448 43,452" />
		<polygon points="26,437 22,427 5,431" />
		<polygon points="247,261 238,250 253,244 254,256 261,260 254,272 257,280 253,284 245,275" />
		<polygon points="185,345 190,337 194,345 201,348 201,357 186,358" />
		<polygon points="91,455 100,462 93,474 85,466 75,465 79,453" />
		<polygon points="220,366 219,357 212,354 210,365" />
		<polygon points="262,531 253,519 269,519" />
		<polygon points="218,538 222,519 235,519 232,528 248,526 248,542" />
		<polygon points="417,715 436,674 420,667" />
		<polygon points="425,746 433,722 428,767" />
		<polygon points="441,713 436,701 428,710" />
		<polygon points="504,263 504,275 514,299 510,309 525,325 534,347 554,366 563,386 409,581 427,594 422,602 424,635 457,631 457,709 455,723 471,751 459,772 445,771 458,742 441,748 449,727 446,695 449,640 438,666 434,652 421,656 415,622 406,598 396,584 371,564 364,545 367,521 352,507 342,518 331,528 320,520 287,518 286,509 302,510 298,502 320,491 339,498 352,492 338,486 356,467 318,481 293,488 270,488 261,494 264,504 245,508 208,500 202,508 168,495 163,504 148,496 121,481 102,473 107,469 120,468 141,473 144,483 157,480 178,486 197,485 217,474 240,467 221,461 225,451 212,453 209,432 190,422 222,394 206,392 202,379 209,372 226,372 226,357 221,349 228,330 255,327 283,338 296,340 306,352 324,335 335,332 324,324 314,323 314,313 300,288 312,273 317,255 359,278 349,288 355,305 380,316 373,275 383,265 390,233 403,227 418,246 449,243 479,255" />
	</g>
	<g id="na_usa_arizona">
		<polygon points="608,1453 534,1405 545,1397 541,1386 555,1365 549,1344 554,1317 564,1321 573,1298 668,1316 648,1457" />
	</g>
	<g id="na_usa_arkansas">
		<polygon points="1042,1383 1050,1361 1034,1360 1038,1349 953,1351 955,1424 964,1440 1025,1438 1023,1418 1033,1400" />
	</g>
	<g id="na_usa_california">
		<polygon points="470,1220 491,1145 419,1121 411,1153 404,1158 411,1179 405,1201 412,1224 415,1254 423,1265 418,1273 434,1313 431,1327 462,1350 486,1377 487,1396 534,1405 545,1397 541,1386 555,1365 549,1344" />
	</g>
	<g id="na_usa_colorado">
		<polygon points="806,1333 811,1254 814,1232 776,1229 683,1217 668,1316 786,1332" />
	</g>
	<g id="na_usa_connecticut">
		<polygon points="1364,1156 1335,1163 1335,1192 1367,1172" />
	</g>
	<g id="na_usa_delaware">
		<polygon points="1312,1233 1328,1256 1315,1260 1306,1230" />
	</g>
	<g id="na_usa_florida">
		<polygon points="1257,1526 1230,1474 1216,1480 1154,1478 1102,1481 1105,1498 1127,1495 1154,1509 1178,1499 1209,1520 1212,1550 1241,1595 1255,1612 1272,1605 1275,1565" />
	</g>
	<g id="na_usa_georgia">
		<polygon points="1216,1480 1230,1474 1239,1439 1220,1417 1206,1402 1184,1373 1158,1375 1133,1380 1156,1444 1154,1478" />
	</g>
	<g id="na_usa_hawaii">
		<polygon points="-454,1113 -460,1106 -449,1106" />
		<polygon points="-437,1108 -445,1115 -440,1121 -430,1118" />
		<polygon points="-413,1161 -416,1144 -428,1150" />
		<polygon points="-408,1182 -413,1171 -407,1168 -400,1176" />
		<polygon points="-395,1197 -404,1190 -400,1185" />
		<polygon points="-413,1241 -386,1244 -386,1223 -395,1211 -406,1219" />
	</g>
	<g id="na_usa_idaho">
		<polygon points="599,1019 606,994 590,990 569,1061 577,1073 556,1099 555,1119 544,1159 597,1174 651,1184 662,1122 652,1117 630,1117 619,1082 608,1086 619,1055 605,1036" />
	</g>
	<g id="na_usa_illinois">
		<polygon points="1077,1212 1073,1195 1025,1196 1032,1206 1032,1216 1017,1226 1006,1248 1013,1268 1033,1287 1034,1307 1051,1320 1059,1334 1074,1323 1079,1310 1089,1287 1083,1214" />
	</g>
	<g id="na_usa_indiana">
		<polygon points="1094,1211 1083,1214 1089,1287 1079,1310 1104,1307 1111,1300 1127,1285 1140,1281 1132,1209" />
	</g>
	<g id="na_usa_iowa">
		<polygon points="1032,1206 1025,1196 1014,1189 1011,1173 919,1174 914,1196 927,1225 929,1247 1006,1248 1017,1226 1032,1216" />
	</g>
	<g id="na_usa_kansas">
		<polygon points="951,1337 952,1287 937,1262 811,1254 806,1333" />
	</g>
	<g id="na_usa_kentucky">
		<polygon points="1156,1283 1140,1281 1127,1285 1111,1300 1104,1307 1079,1310 1074,1323 1059,1334 1052,1347 1082,1342 1176,1329 1195,1307 1184,1287 1176,1280" />
	</g>
	<g id="na_usa_louisiana">
		<polygon points="1028,1455 1025,1438 964,1440 965,1465 975,1486 968,1518 1002,1523 1006,1516 1025,1531 1047,1532 1053,1524 1066,1533 1061,1520 1065,1508 1044,1509 1042,1503 1059,1502 1053,1496 1055,1485 1017,1487 1019,1473" />
	</g>
	<g id="na_usa_maine">
		<polygon points="1375,1121 1354,1070 1363,1060 1364,1012 1373,1011 1397,1013 1407,1043 1427,1052 1430,1066 1409,1082 1397,1080 1394,1097 1383,1105" />
	</g>
	<g id="na_usa_maryland">
		<polygon points="1317,1293 1328,1256 1315,1260 1306,1230 1237,1243 1239,1255 1262,1241 1272,1248 1287,1255 1285,1268 1303,1272 1308,1265 1318,1274" />
	</g>
	<g id="na_usa_massachusetts">
		<polygon points="1335,1163 1334,1144 1348,1139 1375,1121 1379,1142 1400,1152 1381,1163 1373,1153 1364,1156" />
	</g>
	<g id="na_usa_michigan">
		<polygon points="1094,1211 1102,1190 1103,1177 1095,1163 1097,1134 1105,1126 1116,1119 1115,1110 1129,1112 1146,1120 1148,1138 1138,1155 1157,1147 1168,1169 1163,1190 1161,1199 1155,1206 1132,1209" />
		<polygon points="1085,1109 1071,1128 1064,1110 1024,1096 1062,1069 1055,1086 1065,1085 1074,1095 1085,1092 1110,1084 1124,1092 1133,1102 1109,1102 1090,1114" />
	</g>
	<g id="na_usa_minnesota">
		<polygon points="1011,1173 919,1174 919,1130 912,1122 918,1113 911,1082 907,1038 942,1037 981,1048 1031,1058 992,1092 990,1108 979,1117 982,1143 1009,1163" />
	</g>
	<g id="na_usa_mississippi">
		<polygon points="1084,1382 1042,1383 1033,1400 1023,1418 1025,1438 1028,1455 1019,1473 1017,1487 1055,1485 1053,1496 1059,1502 1084,1499" />
	</g>
	<g id="na_usa_missouri">
		<polygon points="1038,1349 953,1351 951,1337 952,1287 937,1262 929,1247 1006,1248 1013,1268 1033,1287 1034,1307 1051,1320 1059,1334 1052,1347 1050,1361 1034,1360" />
	</g>
	<g id="na_usa_montana">
		<polygon points="790,1104 798,1029 701,1015 639,1001 606,994 599,1019 605,1036 619,1055 608,1086 619,1082 630,1117 652,1117 662,1122 666,1109 786,1129" />
	</g>
	<g id="na_usa_nebraska">
		<polygon points="927,1225 914,1196 880,1184 781,1177 776,1229 814,1232 811,1254 937,1262 929,1247" />
	</g>
	<g id="na_usa_nevada">
		<polygon points="554,1317 549,1344 470,1220 491,1145 544,1159 597,1174 573,1298 564,1321" />
	</g>
	<g id="na_usa_newhampshire">
		<polygon points="1348,1139 1375,1121 1354,1070 1347,1081 1343,1100" />
	</g>
	<g id="na_usa_newjersey">
		<polygon points="1311,1204 1310,1183 1335,1192 1340,1208 1331,1241 1312,1233 1313,1226 1322,1215" />
	</g>
	<g id="na_usa_newmexico">
		<polygon points="665,1461 648,1457 668,1316 786,1332 785,1344 774,1458 701,1450 667,1449" />
	</g>
	<g id="na_usa_newyork">
		<polygon points="1335,1192 1335,1163 1334,1144 1318,1088 1296,1095 1281,1110 1276,1125 1281,1140 1247,1148 1230,1155 1233,1163 1221,1181 1299,1171 1310,1183" />
	</g>
	<g id="na_usa_northdakota">
		<polygon points="911,1082 907,1038 841,1034 798,1029 790,1104 918,1113" />
	</g>
	<g id="na_usa_northcarolina">
		<polygon points="1324,1317 1322,1307 1208,1327 1183,1347 1158,1375 1184,1373 1198,1364 1229,1363 1231,1371 1254,1367 1279,1386 1296,1380 1308,1362 1320,1352 1315,1342 1328,1328 1313,1325" />
	</g>
	<g id="na_usa_ohio">
		<polygon points="1167,1209 1155,1206 1132,1209 1140,1281 1156,1283 1176,1280 1184,1287 1191,1269 1210,1253 1214,1224 1207,1192 1185,1206" />
	</g>
	<g id="na_usa_oklahoma">
		<polygon points="953,1351 951,1337 806,1333 786,1332 785,1344 846,1350 841,1395 875,1411 909,1417 939,1417 955,1424" />
	</g>
	<g id="na_usa_oregon">
		<polygon points="577,1073 569,1061 536,1053 493,1046 478,1046 473,1030 459,1021 434,1087 423,1097 419,1121 491,1145 544,1159 555,1119 556,1099" />
	</g>
	<g id="na_usa_pennsylvania">
		<polygon points="1306,1230 1237,1243 1218,1247 1214,1224 1207,1192 1221,1181 1299,1171 1310,1183 1311,1204 1322,1215 1313,1226" />
	</g>
	<g id="na_usa_rhodeisland">
		<polygon points="1376,1167 1373,1153 1364,1156 1367,1172" />
	</g>
	<g id="na_usa_southdakota">
		<polygon points="912,1122 918,1113 790,1104 786,1129 781,1177 880,1184 914,1196 919,1174 919,1130" />
	</g>
	<g id="na_usa_southcarolina">
		<polygon points="1184,1373 1206,1402 1220,1417 1239,1439 1243,1427 1256,1424 1279,1386 1254,1367 1231,1371 1229,1363 1198,1364" />
	</g>
	<g id="na_usa_tennessee">
		<polygon points="1133,1380 1084,1382 1042,1383 1050,1361 1052,1347 1082,1342 1176,1329 1208,1327 1183,1347 1158,1375" />
	</g>
	<g id="na_usa_texas">
		<polygon points="852,1600 896,1619 894,1576 908,1546 935,1546 948,1520 968,1518 975,1486 965,1465 964,1440 955,1424 939,1417 909,1417 875,1411 841,1395 846,1350 785,1344 774,1458 701,1450 732,1486 740,1511 764,1530 779,1513 805,1515 836,1564" />
	</g>
	<g id="na_usa_utah">
		<polygon points="668,1316 573,1298 597,1174 651,1184 645,1208 683,1217" />
	</g>
	<g id="na_usa_vermont">
		<polygon points="1334,1144 1348,1139 1343,1100 1347,1081 1318,1088" />
	</g>
	<g id="na_usa_virginia">
		<polygon points="1312,1300 1303,1272 1285,1268 1287,1255 1272,1248 1261,1250 1247,1276 1240,1274 1231,1301 1213,1311 1195,1307 1176,1329 1208,1327 1322,1307 1319,1302" />
	</g>
	<g id="na_usa_washington">
		<polygon points="501,990 497,955 590,990 569,1061 536,1053 493,1046 478,1046 473,1030 459,1021 463,972 468,965 492,981 485,997" />
	</g>
	<g id="na_usa_westvirginia">
		<polygon points="1214,1224 1210,1253 1191,1269 1184,1287 1195,1307 1213,1311 1231,1301 1240,1274 1247,1276 1261,1250 1272,1248 1262,1241 1239,1255 1237,1243 1218,1247" />
	</g>
	<g id="na_usa_wisconsin">
		<polygon points="1013,1087 992,1092 990,1108 979,1117 982,1143 1009,1163 1011,1173 1014,1189 1025,1196 1073,1195 1075,1160 1083,1127 1065,1145 1071,1128 1064,1110 1024,1096 1013,1097" />
	</g>
	<g id="na_usa_wyoming">
		<polygon points="645,1208 651,1184 662,1122 666,1109 786,1129 781,1177 776,1229 683,1217" />
	</g>
</svg>